<svg xmlns="http://www.w3.org/2000/svg" width="158" height="158" viewBox="0 0 158 158" fill="none"><g id="Selo garantia"><path id="Star 1" d="M69.0115 12.4551C74.137 6.06396 83.863 6.06396 88.9885 12.4551V12.4551C92.4868 16.8174 98.4114 18.4049 103.622 16.3762V16.3762C111.257 13.404 119.68 18.2671 120.923 26.3647V26.3647C121.771 31.8917 126.108 36.2287 131.635 37.0773V37.0773C139.733 38.3205 144.596 46.7435 141.624 54.3779V54.3779C139.595 59.5886 141.183 65.5132 145.545 69.0115V69.0115C151.936 74.137 151.936 83.863 145.545 88.9885V88.9885C141.183 92.4868 139.595 98.4114 141.624 103.622V103.622C144.596 111.257 139.733 119.68 131.635 120.923V120.923C126.108 121.771 121.771 126.108 120.923 131.635V131.635C119.68 139.733 111.257 144.596 103.622 141.624V141.624C98.4114 139.595 92.4868 141.183 88.9885 145.545V145.545C83.863 151.936 74.137 151.936 69.0115 145.545V145.545C65.5132 141.183 59.5886 139.595 54.3779 141.624V141.624C46.7435 144.596 38.3205 139.733 37.0773 131.635V131.635C36.2287 126.108 31.8917 121.771 26.3647 120.923V120.923C18.2671 119.68 13.404 111.257 16.3762 103.622V103.622C18.4049 98.4114 16.8174 92.4868 12.4551 88.9885V88.9885C6.06396 83.863 6.06396 74.137 12.4551 69.0115V69.0115C16.8174 65.5132 18.4049 59.5886 16.3762 54.3779V54.3779C13.404 46.7435 18.2671 38.3205 26.3647 37.0773V37.0773C31.8917 36.2287 36.2287 31.8917 37.0773 26.3647V26.3647C38.3205 18.2671 46.7435 13.404 54.3779 16.3762V16.3762C59.5886 18.4049 65.5132 16.8174 69.0115 12.4551V12.4551Z" fill="#9E0E5B"></path><g id="Escrita"><g id="Group 5"><g id="GARANTIA INCONDICIONAL"><path id="L" d="M124.408 58.216L125.468 60.2989L124.995 60.5397L123.639 57.8759L129.44 54.9234L129.735 55.5043L124.408 58.216Z" fill="white"></path><path id="A" d="M123.737 54.9278L122.141 52.434L120.533 52.7889L120.161 52.2086L126.853 50.7446L127.249 51.3641L123.113 56.8199L122.741 56.2395L123.737 54.9278ZM124.087 54.472L126.358 51.4922L122.701 52.3075L124.087 54.472Z" fill="white"></path><path id="N" d="M119.485 51.3299L119.069 50.8281L120.984 44.5597L116.769 48.0538L116.353 47.5519L121.364 43.3982L121.78 43.9001L119.872 50.1625L124.08 46.6744L124.496 47.1762L119.485 51.3299Z" fill="white"></path><path id="O" d="M113.231 44.5936C112.788 44.185 112.482 43.7116 112.311 43.1737C112.145 42.6311 112.127 42.0783 112.259 41.5152C112.399 40.9518 112.686 40.4353 113.12 39.9657C113.554 39.4961 114.044 39.1714 114.591 38.9917C115.146 38.8116 115.698 38.7854 116.248 38.9131C116.802 39.0362 117.3 39.3021 117.743 39.7107C118.189 40.1236 118.496 40.6013 118.662 41.1438C118.833 41.6818 118.848 42.2325 118.708 42.7959C118.572 43.3548 118.287 43.8691 117.853 44.3387C117.419 44.8082 116.927 45.1352 116.376 45.3195C115.83 45.4992 115.279 45.5275 114.725 45.4044C114.176 45.2767 113.677 45.0065 113.231 44.5936ZM113.616 44.1764C113.972 44.505 114.367 44.7179 114.801 44.815C115.235 44.912 115.676 44.8837 116.122 44.7299C116.573 44.5715 116.985 44.2894 117.36 43.8837C117.735 43.4779 117.982 43.0464 118.1 42.5893C118.218 42.1322 118.212 41.691 118.081 41.2656C117.95 40.8403 117.706 40.4633 117.351 40.1347C116.995 39.8061 116.6 39.5933 116.166 39.4962C115.731 39.3991 115.291 39.4275 114.845 39.5813C114.398 39.7351 113.988 40.0149 113.613 40.4207C113.238 40.8264 112.989 41.2602 112.867 41.7219C112.749 42.179 112.755 42.6202 112.886 43.0455C113.017 43.4709 113.26 43.8478 113.616 44.1764Z" fill="white"></path><path id="I" d="M113.802 36.4722L109.842 41.6381L109.325 41.2415L113.284 36.0757L113.802 36.4722Z" fill="white"></path><path id="C" d="M104.891 34.3798C105.232 33.8392 105.655 33.4309 106.16 33.1549C106.668 32.8736 107.201 32.7441 107.76 32.7665C108.321 32.7835 108.854 32.9512 109.358 33.2693C109.972 33.6571 110.404 34.1355 110.654 34.7045C110.913 35.2716 110.975 35.8832 110.839 36.5393L110.194 36.1316C110.272 35.6595 110.214 35.2158 110.021 34.8003C109.834 34.3882 109.512 34.038 109.055 33.7496C108.651 33.4944 108.226 33.3585 107.782 33.342C107.342 33.3288 106.918 33.4426 106.509 33.6835C106.103 33.9192 105.753 34.2706 105.458 34.7378C105.163 35.2049 104.996 35.6723 104.958 36.14C104.919 36.6076 105.001 37.037 105.201 37.4282C105.407 37.8226 105.713 38.1474 106.117 38.4027C106.573 38.691 107.026 38.8339 107.476 38.8314C107.934 38.8269 108.358 38.6907 108.747 38.4227L109.393 38.8304C108.862 39.2293 108.285 39.4339 107.662 39.4442C107.038 39.4545 106.422 39.2674 105.813 38.8829C105.31 38.5647 104.928 38.1583 104.667 37.6636C104.41 37.1636 104.298 36.6265 104.33 36.0522C104.363 35.4779 104.549 34.9204 104.891 34.3798Z" fill="white"></path><path id="I_2" d="M104.936 30.8196L101.974 36.6152L101.393 36.3186L104.355 30.523L104.936 30.8196Z" fill="white"></path><path id="D" d="M99.6631 28.4181C100.33 28.6903 100.852 29.0444 101.231 29.4805C101.609 29.9166 101.832 30.4133 101.9 30.9705C101.967 31.5278 101.873 32.1197 101.618 32.7461C101.364 33.3668 101.018 33.8526 100.58 34.2034C100.144 34.5484 99.6387 34.7443 99.0631 34.7909C98.4899 34.8319 97.87 34.7162 97.2033 34.4441L95.4188 33.7156L97.8786 27.6897L99.6631 28.4181ZM97.4074 33.9441C98.2465 34.2866 98.9736 34.3286 99.5887 34.0701C100.212 33.8082 100.684 33.2836 101.006 32.4962C101.329 31.7031 101.36 30.995 101.098 30.3718C100.845 29.7452 100.298 29.2607 99.459 28.9181L98.278 28.436L96.2264 33.462L97.4074 33.9441Z" fill="white"></path><path id="N_2" d="M93.9431 33.2293L93.3135 33.0605L91.2504 26.8391L89.8328 32.1276L89.2033 31.9588L90.8884 25.6721L91.5179 25.8408L93.5835 32.0532L94.9986 26.7738L95.6282 26.9425L93.9431 33.2293Z" fill="white"></path><path id="O_2" d="M84.9443 31.3513C84.3472 31.2738 83.8235 31.0649 83.3731 30.7247C82.9236 30.3784 82.5896 29.9375 82.3712 29.4021C82.1598 28.8614 82.0952 28.2739 82.1776 27.6399C82.2599 27.0058 82.472 26.4575 82.8137 25.9948C83.1625 25.5268 83.598 25.1859 84.1203 24.972C84.6434 24.752 85.2035 24.6808 85.8006 24.7583C86.4039 24.8367 86.9303 25.049 87.3799 25.3954C87.8302 25.7355 88.1611 26.176 88.3725 26.7168C88.5848 27.2514 88.6498 27.8357 88.5674 28.4698C88.4851 29.1038 88.2726 29.6553 87.93 30.1241C87.5882 30.5867 87.1558 30.9281 86.6327 31.1481C86.1104 31.3619 85.5476 31.4297 84.9443 31.3513ZM85.0175 30.7881C85.4977 30.8504 85.943 30.7956 86.3534 30.6235C86.7639 30.4515 87.1067 30.1736 87.3819 29.79C87.6578 29.4001 87.8314 28.9313 87.9026 28.3834C87.9737 27.8355 87.9253 27.341 87.7572 26.8998C87.5892 26.4585 87.3287 26.1023 86.9758 25.8311C86.623 25.56 86.2064 25.3932 85.7263 25.3308C85.2461 25.2685 84.8008 25.3233 84.3903 25.4954C83.9799 25.6674 83.6371 25.9453 83.3619 26.3289C83.0867 26.7126 82.9136 27.1784 82.8424 27.7262C82.7712 28.2741 82.8193 28.7717 82.9865 29.2191C83.1546 29.6603 83.415 30.0166 83.7679 30.2877C84.1208 30.5589 84.5373 30.7257 85.0175 30.7881Z" fill="white"></path><path id="C_2" d="M74.6285 27.6309C74.6223 26.9915 74.7564 26.4191 75.0308 25.9136C75.3052 25.4018 75.6831 25.004 76.1646 24.7199C76.646 24.4297 77.1846 24.2816 77.7805 24.2758C78.5068 24.2688 79.1292 24.4365 79.6478 24.7791C80.1725 25.1154 80.5559 25.5959 80.7979 26.2206L80.0344 26.228C79.8439 25.7891 79.555 25.4474 79.1677 25.2028C78.7866 24.9582 78.3261 24.8385 77.786 24.8438C77.3081 24.8485 76.8778 24.9644 76.4951 25.1916C76.1186 25.4187 75.8238 25.7444 75.6107 26.1686C75.3974 26.5867 75.2935 27.0719 75.2989 27.6243C75.3043 28.1768 75.4176 28.6599 75.6389 29.0737C75.8602 29.4875 76.1613 29.8042 76.5421 30.024C76.9292 30.2437 77.3617 30.3513 77.8396 30.3466C78.3797 30.3413 78.8378 30.2158 79.2141 29.9701C79.5965 29.718 79.8788 29.3738 80.0608 28.9375L80.8243 28.9301C80.5944 29.5531 80.2205 30.0379 79.7024 30.3843C79.1843 30.7308 78.5652 30.9076 77.8451 30.9146C77.2492 30.9204 76.7078 30.786 76.221 30.5113C75.734 30.2305 75.3484 29.8401 75.0642 29.34C74.78 28.8399 74.6347 28.2702 74.6285 27.6309Z" fill="white"></path><path id="N_3" d="M73.4134 31.0337L72.7681 31.1254L68.4298 26.212L69.2004 31.6326L68.5551 31.7243L67.639 25.2804L68.2844 25.1887L72.6213 30.0929L71.852 24.6815L72.4973 24.5898L73.4134 31.0337Z" fill="white"></path><path id="I_3" d="M65.5611 25.7633L67.0182 32.1068L66.383 32.2528L64.9258 25.9093L65.5611 25.7633Z" fill="white"></path><path id="A_2" d="M61.1401 32.145L58.3641 33.1752L58.3693 34.8219L57.7233 35.0616L57.7141 28.212L58.4037 27.9561L62.8564 33.1568L62.2104 33.3965L61.1401 32.145ZM60.7689 31.7067L58.3396 28.8539L58.3595 32.6008L60.7689 31.7067Z" fill="white"></path><path id="I_4" d="M53.9597 29.7011L56.7163 35.5972L56.1258 35.8733L53.3693 29.9771L53.9597 29.7011Z" fill="white"></path><path id="T" d="M51.8894 30.6688L52.1518 31.1408L50.573 32.0186L53.4735 37.2351L52.9038 37.5518L50.0034 32.3353L48.4164 33.2177L48.154 32.7457L51.8894 30.6688Z" fill="white"></path><path id="N_4" d="M50.3858 39.0129L49.8547 39.3907L43.7446 37.0181L46.9183 41.4795L46.3872 41.8574L42.6143 36.5537L43.1454 36.1759L49.2501 38.5409L46.0818 34.0871L46.6129 33.7092L50.3858 39.0129Z" fill="white"></path><path id="A_3" d="M43.5057 42.2917L41.3212 44.2905L41.9456 45.8143L41.4373 46.2795L38.8518 39.9366L39.3945 39.44L45.4766 42.5834L44.9682 43.0486L43.5057 42.2917ZM42.9969 42.0252L39.6729 40.296L41.1009 43.7601L42.9969 42.0252Z" fill="white"></path><path id="R" d="M40.33 47.5346L37.2211 46.9668L36.4331 47.8735L38.4853 49.657L38.0577 50.149L33.1452 45.8794L34.4279 44.4035C34.9043 43.8553 35.3959 43.5547 35.9026 43.5016C36.4134 43.4438 36.8819 43.6002 37.3083 43.9708C37.6644 44.2803 37.8794 44.648 37.9532 45.0741C38.0264 45.4914 37.9274 45.9317 37.6563 46.3951L40.8431 46.9442L40.33 47.5346ZM36.0325 47.5253L36.8938 46.5343C37.2277 46.1501 37.3844 45.7805 37.364 45.4256C37.3476 45.0659 37.1824 44.7496 36.8685 44.4768C36.5452 44.1958 36.2155 44.0737 35.8792 44.1105C35.5383 44.1431 35.1927 44.3609 34.8425 44.7639L33.9874 45.7478L36.0325 47.5253Z" fill="white"></path><path id="A_4" d="M35.3317 51.2159L33.6568 53.6577L34.6101 55.0004L34.2203 55.5686L30.2653 49.9763L30.6814 49.3697L37.3174 51.0536L36.9276 51.6218L35.3317 51.2159ZM34.7757 51.0716L31.1464 50.1403L33.322 53.1909L34.7757 51.0716Z" fill="white"></path><path id="G" d="M29.3354 54.8591C28.8692 54.8303 28.4408 54.9323 28.0503 55.1651C27.657 55.3895 27.3432 55.7312 27.1091 56.1902C26.889 56.6215 26.791 57.0593 26.8152 57.5037C26.8393 57.9481 26.9858 58.3643 27.2547 58.7524C27.5181 59.1377 27.8931 59.4545 28.3797 59.7028C28.8663 59.951 29.3456 60.0702 29.8176 60.0601C30.2897 60.0501 30.7127 59.9245 31.0867 59.6832C31.4606 59.4419 31.7577 59.1057 31.9777 58.6744C32.1837 58.2707 32.2828 57.8648 32.275 57.4566C32.2645 57.0401 32.1483 56.6533 31.9264 56.2961C31.7017 55.9306 31.3808 55.624 30.9636 55.3763L29.7194 57.8147L29.2466 57.5735L30.804 54.5213L31.227 54.7371C31.7216 55.0243 32.1127 55.3981 32.4005 55.8586C32.6827 56.3162 32.8355 56.8157 32.8588 57.3573C32.885 57.8933 32.7655 58.4212 32.5003 58.941C32.2266 59.4773 31.8539 59.9005 31.3822 60.2103C30.905 60.5174 30.3775 60.6838 29.7998 60.7096C29.2195 60.7271 28.6445 60.5905 28.075 60.2999C27.5054 60.0093 27.0602 59.6254 26.7393 59.148C26.4157 58.6623 26.2409 58.1376 26.2149 57.5738C26.1835 57.0072 26.3046 56.4557 26.5783 55.9193C26.8942 55.3 27.3256 54.8371 27.8722 54.5307C28.4188 54.2242 29.0222 54.107 29.6824 54.179L29.3354 54.8591Z" fill="white"></path></g></g><g id="Group 6"><g id="GARANTIA INCONDICIONAL_2"><path id="L_2" d="M32.9954 101.249L31.9352 99.1664L32.4082 98.9257L33.7641 101.589L27.9636 104.542L27.6679 103.961L32.9954 101.249Z" fill="white"></path><path id="A_5" d="M33.666 104.537L35.2623 107.031L36.8704 106.676L37.2419 107.256L30.5505 108.72L30.154 108.101L34.2901 102.645L34.6616 103.225L33.666 104.537ZM33.3165 104.993L31.0449 107.973L34.7021 107.157L33.3165 104.993Z" fill="white"></path><path id="N_5" d="M37.9182 108.135L38.3342 108.637L36.4186 114.905L40.6339 111.411L41.0498 111.913L36.0388 116.067L35.6229 115.565L37.5313 109.302L33.3232 112.79L32.9072 112.289L37.9182 108.135Z" fill="white"></path><path id="O_3" d="M44.1725 114.872C44.6148 115.28 44.9212 115.754 45.0918 116.292C45.2582 116.834 45.2756 117.387 45.1441 117.95C45.0038 118.514 44.7167 119.03 44.2827 119.5C43.8488 119.969 43.3586 120.294 42.8122 120.474C42.2571 120.654 41.7046 120.68 41.1548 120.552C40.6009 120.429 40.1028 120.163 39.6605 119.755C39.2137 119.342 38.9071 118.864 38.7407 118.322C38.5701 117.784 38.555 117.233 38.6953 116.669C38.8314 116.111 39.1164 115.596 39.5503 115.127C39.9842 114.657 40.4765 114.33 41.0271 114.146C41.5735 113.966 42.1237 113.938 42.6777 114.061C43.2274 114.189 43.7257 114.459 44.1725 114.872ZM43.787 115.289C43.4314 114.96 43.0365 114.747 42.6021 114.65C42.1678 114.553 41.7274 114.582 41.281 114.735C40.8304 114.894 40.4176 115.176 40.0427 115.582C39.6677 115.987 39.4212 116.419 39.3031 116.876C39.1849 117.333 39.1914 117.774 39.3224 118.2C39.4534 118.625 39.6967 119.002 40.0523 119.331C40.4079 119.659 40.8029 119.872 41.2372 119.969C41.6716 120.066 42.1119 120.038 42.5583 119.884C43.0047 119.73 43.4154 119.45 43.7903 119.045C44.1653 118.639 44.4139 118.205 44.5363 117.743C44.6544 117.286 44.648 116.845 44.517 116.42C44.386 115.994 44.1427 115.617 43.787 115.289Z" fill="white"></path><path id="I_5" d="M43.6015 122.994L47.561 117.828L48.0783 118.224L44.1188 123.39L43.6015 122.994Z" fill="white"></path><path id="C_3" d="M52.5123 125.086C52.171 125.627 51.748 126.035 51.2433 126.311C50.7353 126.592 50.2021 126.722 49.6435 126.699C49.0816 126.682 48.5488 126.515 48.0449 126.196C47.4308 125.809 46.9987 125.33 46.7487 124.761C46.4901 124.194 46.4284 123.583 46.5637 122.927L47.2093 123.334C47.1314 123.806 47.1889 124.25 47.3818 124.665C47.5694 125.078 47.8915 125.428 48.3482 125.716C48.7523 125.971 49.1768 126.107 49.6215 126.124C50.061 126.137 50.4853 126.023 50.8944 125.782C51.3001 125.547 51.6505 125.195 51.9455 124.728C52.2405 124.261 52.4071 123.794 52.4455 123.326C52.4838 122.858 52.4026 122.429 52.2017 122.038C51.9956 121.643 51.6905 121.318 51.2863 121.063C50.8297 120.775 50.3766 120.632 49.9272 120.634C49.4692 120.639 49.0455 120.775 48.656 121.043L48.0104 120.635C48.5413 120.237 49.1183 120.032 49.7415 120.022C50.3647 120.011 50.9807 120.198 51.5896 120.583C52.0935 120.901 52.4755 121.308 52.7358 121.802C52.9927 122.302 53.1051 122.839 53.0728 123.414C53.0405 123.988 52.8537 124.545 52.5123 125.086Z" fill="white"></path><path id="I_6" d="M52.4675 128.646L55.4297 122.851L56.0101 123.147L53.0479 128.943L52.4675 128.646Z" fill="white"></path><path id="D_2" d="M57.7399 131.048C57.0733 130.776 56.5507 130.421 56.1722 129.985C55.7937 129.549 55.5707 129.053 55.5032 128.495C55.4356 127.938 55.5297 127.346 55.7854 126.72C56.0388 126.099 56.3846 125.613 56.8228 125.262C57.2587 124.917 57.7644 124.722 58.3399 124.675C58.9132 124.634 59.5331 124.75 60.1998 125.022L61.9843 125.75L59.5245 131.776L57.7399 131.048ZM59.9957 125.522C59.1566 125.179 58.4295 125.137 57.8144 125.396C57.1912 125.658 56.7189 126.182 56.3975 126.97C56.0738 127.763 56.0428 128.471 56.3047 129.094C56.5585 129.721 57.105 130.205 57.944 130.548L59.1251 131.03L61.1767 126.004L59.9957 125.522Z" fill="white"></path><path id="N_6" d="M63.4601 126.236L64.0897 126.405L66.1528 132.626L67.5704 127.338L68.1999 127.506L66.5148 133.793L65.8853 133.625L63.8197 127.412L62.4046 132.692L61.775 132.523L63.4601 126.236Z" fill="white"></path><path id="O_4" d="M72.4587 128.114C73.0559 128.191 73.5796 128.4 74.0299 128.74C74.4795 129.086 74.8134 129.527 75.0319 130.063C75.2433 130.603 75.3079 131.191 75.2255 131.825C75.1432 132.459 74.9311 133.007 74.5893 133.47C74.2406 133.938 73.8051 134.279 73.2828 134.493C72.7597 134.713 72.1996 134.784 71.6025 134.707C70.9992 134.628 70.4728 134.416 70.0232 134.069C69.5729 133.729 69.242 133.289 69.0305 132.748C68.8183 132.213 68.7533 131.629 68.8357 130.995C68.918 130.361 69.1305 129.81 69.4731 129.341C69.8148 128.878 70.2473 128.537 70.7704 128.317C71.2927 128.103 71.8555 128.035 72.4587 128.114ZM72.3856 128.677C71.9054 128.614 71.4601 128.669 71.0497 128.841C70.6392 129.013 70.2964 129.291 70.0212 129.675C69.7452 130.065 69.5717 130.534 69.5005 131.081C69.4294 131.629 69.4778 132.124 69.6458 132.565C69.8139 133.006 70.0744 133.363 70.4272 133.634C70.7801 133.905 71.1966 134.072 71.6768 134.134C72.157 134.196 72.6023 134.142 73.0127 133.969C73.4232 133.797 73.766 133.52 74.0412 133.136C74.3164 132.752 74.4895 132.286 74.5607 131.739C74.6318 131.191 74.5838 130.693 74.4165 130.246C74.2485 129.804 73.988 129.448 73.6351 129.177C73.2823 128.906 72.8657 128.739 72.3856 128.677Z" fill="white"></path><path id="C_4" d="M82.7746 131.834C82.7808 132.473 82.6467 133.046 82.3722 133.551C82.0979 134.063 81.72 134.461 81.2385 134.745C80.7571 135.035 80.2185 135.183 79.6226 135.189C78.8963 135.196 78.2739 135.028 77.7553 134.686C77.2305 134.349 76.8472 133.869 76.6052 133.244L77.3687 133.237C77.5592 133.676 77.8481 134.017 78.2354 134.262C78.6164 134.507 79.077 134.626 79.617 134.621C80.095 134.616 80.5253 134.5 80.908 134.273C81.2845 134.046 81.5793 133.72 81.7924 133.296C82.0056 132.878 82.1095 132.393 82.1042 131.841C82.0988 131.288 81.9854 130.805 81.7641 130.391C81.5428 129.977 81.2418 129.661 80.8609 129.441C80.4739 129.221 80.0414 129.114 79.5635 129.118C79.0234 129.124 78.5653 129.249 78.189 129.495C77.8065 129.747 77.5243 130.091 77.3423 130.527L76.5788 130.535C76.8087 129.912 77.1826 129.427 77.7007 129.081C78.2188 128.734 78.8379 128.557 79.5579 128.55C80.1538 128.544 80.6952 128.679 81.1821 128.953C81.6691 129.234 82.0547 129.625 82.3389 130.125C82.6231 130.625 82.7683 131.195 82.7746 131.834Z" fill="white"></path><path id="N_7" d="M83.9896 128.432L84.6349 128.34L88.9731 133.254L88.2025 127.833L88.8478 127.741L89.7639 134.185L89.1186 134.277L84.7817 129.373L85.5509 134.784L84.9056 134.876L83.9896 128.432Z" fill="white"></path><path id="I_7" d="M91.8419 133.702L90.3847 127.359L91.02 127.213L92.4771 133.556L91.8419 133.702Z" fill="white"></path><path id="A_6" d="M96.263 127.32L99.039 126.29L99.0338 124.643L99.6798 124.403L99.689 131.253L98.9993 131.509L94.5467 126.308L95.1927 126.068L96.263 127.32ZM96.6342 127.758L99.0634 130.611L99.0436 126.864L96.6342 127.758Z" fill="white"></path><path id="I_8" d="M103.443 129.765L100.687 123.869L101.277 123.593L104.034 129.489L103.443 129.765Z" fill="white"></path><path id="T_2" d="M105.514 128.797L105.251 128.325L106.83 127.447L103.93 122.231L104.499 121.914L107.4 127.13L108.987 126.248L109.249 126.72L105.514 128.797Z" fill="white"></path><path id="N_8" d="M107.017 120.453L107.548 120.075L113.659 122.448L110.485 117.986L111.016 117.608L114.789 122.912L114.258 123.29L108.153 120.925L111.321 125.379L110.79 125.757L107.017 120.453Z" fill="white"></path><path id="A_7" d="M113.897 117.174L116.082 115.175L115.457 113.651L115.966 113.186L118.551 119.529L118.009 120.025L111.926 116.882L112.435 116.417L113.897 117.174ZM114.406 117.44L117.73 119.169L116.302 115.705L114.406 117.44Z" fill="white"></path><path id="R_2" d="M117.073 111.931L120.182 112.498L120.97 111.592L118.918 109.808L119.345 109.316L124.258 113.586L122.975 115.062C122.499 115.61 122.007 115.911 121.501 115.964C120.99 116.021 120.521 115.865 120.095 115.495C119.739 115.185 119.524 114.817 119.45 114.391C119.377 113.974 119.476 113.534 119.747 113.07L116.56 112.521L117.073 111.931ZM121.371 111.94L120.509 112.931C120.175 113.315 120.019 113.685 120.039 114.04C120.056 114.399 120.221 114.716 120.535 114.989C120.858 115.269 121.188 115.392 121.524 115.355C121.865 115.322 122.21 115.104 122.561 114.701L123.416 113.718L121.371 111.94Z" fill="white"></path><path id="A_8" d="M122.071 108.249L123.746 105.808L122.793 104.465L123.183 103.897L127.138 109.489L126.722 110.096L120.086 108.412L120.475 107.843L122.071 108.249ZM122.627 108.394L126.257 109.325L124.081 106.274L122.627 108.394Z" fill="white"></path><path id="G_2" d="M128.068 104.606C128.534 104.635 128.962 104.533 129.353 104.3C129.746 104.076 130.06 103.734 130.294 103.275C130.514 102.844 130.612 102.406 130.588 101.962C130.564 101.517 130.417 101.101 130.148 100.713C129.885 100.328 129.51 100.011 129.023 99.7626C128.537 99.5143 128.057 99.3952 127.585 99.4052C127.113 99.4152 126.69 99.5409 126.316 99.7821C125.942 100.023 125.645 100.36 125.425 100.791C125.219 101.195 125.12 101.601 125.128 102.009C125.139 102.425 125.255 102.812 125.477 103.169C125.701 103.535 126.022 103.841 126.44 104.089L127.684 101.651L128.156 101.892L126.599 104.944L126.176 104.728C125.682 104.441 125.29 104.067 125.003 103.607C124.72 103.149 124.568 102.65 124.544 102.108C124.518 101.572 124.638 101.044 124.903 100.524C125.176 99.988 125.549 99.5649 126.021 99.255C126.498 98.948 127.026 98.7815 127.603 98.7557C128.184 98.7382 128.759 98.8748 129.328 99.1654C129.898 99.456 130.343 99.84 130.664 100.317C130.987 100.803 131.162 101.328 131.188 101.892C131.22 102.458 131.098 103.01 130.825 103.546C130.509 104.165 130.078 104.628 129.531 104.935C128.984 105.241 128.381 105.358 127.721 105.286L128.068 104.606Z" fill="white"></path></g></g><g id="Pontos"><circle id="Ellipse 4" cx="30.9765" cy="79.0744" r="2.29316" fill="#E1A127"></circle><circle id="Ellipse 5" cx="125.791" cy="80.8273" r="2.29316" fill="#E1A127"></circle></g></g><g id="Frame 6" clip-path="url(#clip0_2246_55)"><path id="30" d="M61.4478 88.1524C59.1345 88.1524 56.837 87.8514 54.5553 87.2493C52.2737 86.6155 50.3406 85.7282 48.7562 84.5874L51.7508 78.6931C53.0184 79.6121 54.492 80.341 56.1715 80.8797C57.851 81.4184 59.5464 81.6878 61.2576 81.6878C63.1907 81.6878 64.7118 81.3075 65.8209 80.547C66.9301 79.7864 67.4846 78.7407 67.4846 77.4097C67.4846 76.1421 66.9934 75.1439 66.0111 74.4151C65.0287 73.6862 63.4442 73.3218 61.2576 73.3218H57.7401V68.2356L67.0093 57.7306L67.8649 60.4876H50.4199V54.3081H73.7116V59.2992L64.49 69.8043L60.5922 67.5702H62.8263C66.9142 67.5702 70.0039 68.4892 72.0954 70.3271C74.1869 72.1651 75.2327 74.526 75.2327 77.4097C75.2327 79.2794 74.7415 81.0382 73.7591 82.686C72.7768 84.3022 71.2715 85.6173 69.2434 86.6313C67.2153 87.6454 64.6167 88.1524 61.4478 88.1524ZM93.0483 88.1524C90.323 88.1524 87.883 87.487 85.7281 86.156C83.5732 84.7934 81.8778 82.8286 80.6419 80.2618C79.406 77.6949 78.7881 74.5894 78.7881 70.9451C78.7881 67.3008 79.406 64.1952 80.6419 61.6284C81.8778 59.0615 83.5732 57.1126 85.7281 55.7817C87.883 54.419 90.323 53.7377 93.0483 53.7377C95.8053 53.7377 98.2454 54.419 100.369 55.7817C102.523 57.1126 104.219 59.0615 105.455 61.6284C106.691 64.1952 107.309 67.3008 107.309 70.9451C107.309 74.5894 106.691 77.6949 105.455 80.2618C104.219 82.8286 102.523 84.7934 100.369 86.156C98.2454 87.487 95.8053 88.1524 93.0483 88.1524ZM93.0483 81.6403C94.3476 81.6403 95.4726 81.2758 96.4233 80.547C97.4056 79.8181 98.1662 78.6615 98.7049 77.077C99.2753 75.4925 99.5605 73.4485 99.5605 70.9451C99.5605 68.4416 99.2753 66.3976 98.7049 64.8132C98.1662 63.2287 97.4056 62.072 96.4233 61.3432C95.4726 60.6143 94.3476 60.2499 93.0483 60.2499C91.7808 60.2499 90.6558 60.6143 89.6734 61.3432C88.7227 62.072 87.9622 63.2287 87.3918 64.8132C86.853 66.3976 86.5837 68.4416 86.5837 70.9451C86.5837 73.4485 86.853 75.4925 87.3918 77.077C87.9622 78.6615 88.7227 79.8181 89.6734 80.547C90.6558 81.2758 91.7808 81.6403 93.0483 81.6403Z" fill="#F9DE7E"></path><path id="DIAS" d="M63.2106 104.949V95.7065H67.4094C68.4129 95.7065 69.2976 95.9001 70.0634 96.2874C70.8292 96.666 71.4278 97.1985 71.8592 97.8851C72.2905 98.5717 72.5061 99.386 72.5061 100.328C72.5061 101.261 72.2905 102.075 71.8592 102.771C71.4278 103.457 70.8292 103.994 70.0634 104.381C69.2976 104.76 68.4129 104.949 67.4094 104.949H63.2106ZM65.3496 103.193H67.3038C67.92 103.193 68.4525 103.079 68.9015 102.85C69.3592 102.612 69.7113 102.278 69.9578 101.846C70.2131 101.415 70.3407 100.909 70.3407 100.328C70.3407 99.7381 70.2131 99.2319 69.9578 98.8094C69.7113 98.3781 69.3592 98.048 68.9015 97.8191C68.4525 97.5814 67.92 97.4626 67.3038 97.4626H65.3496V103.193ZM74.1193 104.949V95.7065H76.2583V104.949H74.1193ZM77.2371 104.949L81.3567 95.7065H83.4693L87.6021 104.949H85.3575L81.9773 96.7892H82.8223L79.4289 104.949H77.2371ZM79.2969 102.969L79.8646 101.345H84.6181L85.199 102.969H79.2969ZM91.598 105.108C90.8586 105.108 90.15 105.011 89.4722 104.817C88.7944 104.615 88.2486 104.355 87.8349 104.038L88.5611 102.427C88.9572 102.709 89.4237 102.942 89.9607 103.127C90.5065 103.303 91.0566 103.391 91.6112 103.391C92.0337 103.391 92.3726 103.352 92.6279 103.272C92.892 103.184 93.0856 103.065 93.2089 102.916C93.3321 102.766 93.3937 102.595 93.3937 102.401C93.3937 102.154 93.2969 101.961 93.1032 101.82C92.9096 101.67 92.6543 101.551 92.3374 101.463C92.0205 101.367 91.6684 101.279 91.2811 101.199C90.9026 101.111 90.5197 101.006 90.1323 100.882C89.7538 100.759 89.4061 100.601 89.0892 100.407C88.7723 100.213 88.5127 99.9581 88.3102 99.6412C88.1166 99.3243 88.0197 98.9194 88.0197 98.4265C88.0197 97.8983 88.1606 97.4186 88.4422 96.9873C88.7327 96.5471 89.1641 96.1994 89.7362 95.9441C90.3172 95.6801 91.0434 95.548 91.9149 95.548C92.4959 95.548 93.068 95.6184 93.6314 95.7593C94.1948 95.8913 94.6921 96.0938 95.1234 96.3667L94.4632 97.9908C94.0319 97.7443 93.6006 97.5638 93.1693 97.4494C92.7379 97.3262 92.3154 97.2645 91.9017 97.2645C91.488 97.2645 91.1491 97.3129 90.885 97.4098C90.6209 97.5066 90.4316 97.6342 90.3172 97.7927C90.2028 97.9423 90.1456 98.1184 90.1456 98.3208C90.1456 98.5585 90.2424 98.7522 90.436 98.9018C90.6297 99.0427 90.885 99.1571 91.2019 99.2451C91.5188 99.3331 91.8665 99.4212 92.245 99.5092C92.6323 99.5972 93.0152 99.6985 93.3937 99.8129C93.781 99.9273 94.1331 100.081 94.45 100.275C94.7669 100.469 95.0222 100.724 95.2159 101.041C95.4183 101.358 95.5196 101.758 95.5196 102.242C95.5196 102.762 95.3743 103.237 95.0838 103.668C94.7933 104.1 94.3576 104.447 93.7766 104.712C93.2045 104.976 92.4782 105.108 91.598 105.108Z" fill="white"></path></g></g><defs><clipPath id="clip0_2246_55"><rect width="65.4982" height="51.7091" fill="white" transform="translate(46.2509 54.582)"></rect></clipPath></defs></svg>